<svg id="Layer_1" data-name="Layer 1" xmlns="http://www.w3.org/2000/svg" viewBox="0 0 800 800"><defs><style>.cls-1{fill:#00599c;}.cls-2{fill:#004482;}.cls-3{fill:#659ad2;}.cls-4{fill:#fff;}</style></defs><path class="cls-1" d="M693.93,569.71c4.73-8.2,7.67-17.44,7.67-25.73V256c0-8.29-2.94-17.53-7.67-25.71L400,400,693.93,569.71Z"/><path class="cls-2" d="M426.13,733.17,675.47,589.22c7.18-4.15,13.73-11.31,18.46-19.51L400,400,106.07,569.71c4.73,8.2,11.28,15.36,18.46,19.51L373.87,733.17c14.37,8.3,37.89,8.3,52.26,0Z"/><path class="cls-3" d="M693.93,230.31c-4.73-8.22-11.28-15.36-18.46-19.51l-249.34-144c-14.37-8.3-37.89-8.3-52.26,0l-249.34,144C110.16,219.1,98.4,239.46,98.4,256V544c0,8.29,2.94,17.53,7.67,25.73L400,400,693.93,230.31Z"/><path class="cls-4" d="M400,601.07c-110.88,0-201.07-90.19-201.07-201.07S289.12,198.93,400,198.93A201.81,201.81,0,0,1,574.12,299.4l-87,50.36a100.56,100.56,0,1,0,0,100.49l87,50.35A201.78,201.78,0,0,1,400,601.05Z"/><path class="cls-4" d="M601.07,388.84H578.7V366.48H556.36v22.36H534v22.34h22.34v22.34H578.7V411.18h22.35V388.84Zm83.77,0H662.5V366.48H640.15v22.36H617.81v22.34h22.34v22.34h22.34V411.18h22.33V388.84Z"/></svg>