<svg id="Layer_1" data-name="Layer 1" xmlns="http://www.w3.org/2000/svg" viewBox="0 0 800 800"><defs><style>.cls-1{fill:#7f3a86;}.cls-2{fill:#662579;}.cls-3{fill:#9a5196;}.cls-4,.cls-5{fill:#fff;}.cls-5{fill-rule:evenodd;}</style></defs><path class="cls-1" d="M692.37,575c4.7-8.46,7.63-18,7.63-26.54V251.53c0-8.55-2.92-18.07-7.63-26.53L400,400Z"/><path class="cls-2" d="M426,743.58,674,595.12c7.14-4.28,13.64-11.66,18.34-20.12L400,400,107.64,575c4.71,8.46,11.21,15.84,18.35,20.12L374,743.58C388.32,752.14,411.7,752.14,426,743.58Z"/><path class="cls-3" d="M692.37,225c-4.71-8.46-11.21-15.84-18.35-20.12L426,56.42c-14.29-8.56-37.67-8.56-52,0L126,204.88c-14.29,8.55-26,29.55-26,46.65V548.47c0,8.55,2.92,18.08,7.63,26.53L400,400Z"/><path class="cls-4" d="M401,600c-110.81,0-201-89.72-201-200s90.15-200,201-200a201.91,201.91,0,0,1,172,96.55l-86.07,51.61A101,101,0,0,0,401,300c-55.41,0-100.48,44.86-100.48,100S345.55,500,401,500a101,101,0,0,0,85.81-47.92L573,503.4A201.89,201.89,0,0,1,401,600Z"/><path class="cls-5" d="M625,325v24.94H575V325H550v24.94H525V375h25v49.87H525V450h25v25h25V450h50v25h25V450h25V425H650V375h25V349.94H650V325Zm0,100V375H575v49.87Z"/></svg>