<svg id="Layer_1" data-name="Layer 1" xmlns="http://www.w3.org/2000/svg" viewBox="0 0 799.99 799.99"><defs><style>.cls-1{fill:#00acd7;}</style></defs><path class="cls-1" d="M100.82,348.71c-1,0-1.94-1-1-1.95l6.81-9.73a5.08,5.08,0,0,1,3.89-1.94h122.6c1,0,1.95,1,1,1.94l-5.84,8.76a5.07,5.07,0,0,1-3.89,1.95ZM49.25,379.84c-1,0-1.94-1-1-1.94l6.81-9.73A5.08,5.08,0,0,1,59,366.22H215.64a2.11,2.11,0,0,1,2,1.95l-2.92,9.73c0,1-1.95,1.94-2.92,1.94ZM132,412c-1,0-2-1-1-1.94l4.86-8.76a5.08,5.08,0,0,1,3.89-1.94h68.12a2.09,2.09,0,0,1,1.94,1.94l-1,7.79a2.09,2.09,0,0,1-2,1.94ZM488.08,341.9l-57.41,14.59c-4.86,1-5.83,1.95-9.73-3.89-4.86-5.84-8.75-9.73-16.54-12.65-21.4-10.7-42.81-7.78-62.27,4.87-23.35,14.59-35,37-35,65.19,0,27.24,19.46,49.62,46.71,53.51,23.35,2.92,42.81-4.86,58.38-22.38,2.92-3.89,5.84-7.78,9.73-12.64H355.75c-6.81,0-8.75-4.87-6.81-10.71,4.87-10.7,12.65-28.21,17.52-37,1-1.95,3.89-5.84,8.75-5.84H499.76c-1,9.73-1,18.49-1.95,28.22-3.89,24.32-12.65,47.67-28.22,67.13-24.32,32.11-56.43,52.55-97.3,58.39-34.05,4.86-65.19-2-92.43-22.38q-38-29.19-43.79-75.9c-4.86-37,6.81-71,29.19-100.22,24.33-32.11,56.44-52.54,96.33-59.35,32.11-5.84,63.25-1.95,90.49,16.54,18.49,11.68,31.14,28.22,39.89,48.65,1,3.89,0,4.86-3.89,5.84Z"/><path class="cls-1" d="M601,531.63c-31.14-1-59.35-9.73-83.68-30.16-20.43-17.51-33.08-39.89-37-66.16-5.84-38.92,4.86-73,28.22-103.14,25.29-33.08,55.46-49.63,96.32-57.41,35-5.84,68.11-2.92,97.3,17.51,27.25,18.49,43.79,43.79,48.65,76.87,5.84,46.71-7.78,83.68-38.92,115.79-22.37,23.35-50.59,37-81.73,43.79C619.44,530.66,609.71,530.66,601,531.63Zm81.73-138.16c0-4.87,0-7.79-1-11.68-5.84-34.05-37-53.51-70.06-45.73-32.1,6.81-52.54,27.24-60.32,59.35-5.84,26.27,6.81,53.52,31.13,65.19a65.06,65.06,0,0,0,55.47-1.94c28.21-13.62,42.81-36,44.75-65.19Z"/></svg>