<svg id="Layer_1" data-name="Layer 1" xmlns="http://www.w3.org/2000/svg" viewBox="0 0 800 800"><defs><style>.cls-1{fill:#ffca28;}</style></defs><path class="cls-1" d="M69.71,68.6H730.29v640H69.71ZM676.16,556c-4.81-29.19-24.45-53.72-82.65-76.62C573.25,470.13,550.76,463.77,544,449c-2.49-8.82-2.86-13.59-1.24-18.81C546.9,413,568,407.8,584.48,412.57c10.76,3.2,20.66,11.2,26.87,24,28.44-18,28.44-18,48.29-30-7.45-11.16-11.16-16-16.11-20.83-17.36-18.77-40.48-28.37-78-27.56l-19.38,2.39c-18.6,4.4-36.37,14-47.08,26.8-31.38,34.42-22.31,94.4,15.67,119.26,37.54,27.2,92.52,33.17,99.53,58.77,6.6,31.22-23.93,41.21-54.13,37.62-22.28-4.84-34.68-15.61-48.3-35.63l-50.35,28c5.76,12.76,12.37,18.38,22.28,29.58,47.89,46.79,167.63,44.41,189.1-26.81.77-2.38,6.61-18.77,2.06-44l1.25,1.74ZM428.92,362.75H367c0,51.67-.25,103-.25,154.81,0,32.86,1.72,63-3.82,72.29-9.06,18.38-32.51,16-43.12,12.76C309,597.42,303.41,590.2,297,579.82c-1.73-2.77-3-5.19-3.49-5.19l-50.2,30c8.4,16.82,20.66,31.25,36.48,40.42,23.52,13.62,55.12,18,88.22,10.85,21.58-6,40.18-18.45,49.84-37.65,14.09-24.79,11.08-55.22,11-89.21.29-54.79,0-109.62,0-164.8l.11-1.5Z"/></svg>