<svg id="Layer_1" data-name="Layer 1" xmlns="http://www.w3.org/2000/svg" viewBox="0 0 800 800"><defs><style>.cls-1{fill:#fff;}</style></defs><path d="M616.47,736.42q-12.91,8.33-26.49,15.67a.59.59,0,0,0-.26-.47c-.63-.47-30-39.8-65.15-87.34l-64-86.4L380.45,459.27c-44.11-65.21-80.39-118.54-80.7-118.54s-.63,52.67-.79,117c-.23,112.68-.31,117.21-1.72,119.87-2,3.83-3.59,5.39-6.88,7.11-2.5,1.26-4.69,1.49-16.5,1.49H260.33l-3.59-2.27a14.56,14.56,0,0,1-5.24-5.7l-1.65-3.52L250,417.91l.23-156.85,2.43-3.05a21.32,21.32,0,0,1,5.79-4.77c3.2-1.57,4.45-1.72,18-1.72,15.95,0,18.61.62,22.76,5.16,1.17,1.25,44.57,66.62,96.5,145.35s122.93,186.25,157.81,239Z"/><path d="M546.08,394.84l-.23,140.59-24.79-38-24.87-38V357.23c0-66.07.31-103.21.78-105a15.94,15.94,0,0,1,7.74-9.85c3.21-1.64,4.38-1.8,16.66-1.8,11.57,0,13.61.16,16.19,1.56a15.79,15.79,0,0,1,7.89,9.23C546.08,253.39,546.24,296.87,546.08,394.84Z"/><path class="cls-1" d="M418.82.44a0,0,0,0,0,0,0Q409.45,0,400,0c-1.9,0-3.8,0-5.7,0h0C176,3.11,0,181,0,400v.1C0,621,179.12,800,400,800h3.22A398.25,398.25,0,0,0,590,752.09a.59.59,0,0,0-.26-.47c-.63-.47-30-39.8-65.15-87.34l-64-86.4L380.45,459.27c-44.11-65.21-80.39-118.54-80.7-118.54s-.63,52.67-.79,117c-.23,112.68-.31,117.21-1.72,119.87-2,3.83-3.59,5.39-6.88,7.11-2.5,1.26-4.69,1.49-16.5,1.49H260.33l-3.59-2.27a14.56,14.56,0,0,1-5.24-5.7l-1.65-3.52L250,417.91l.23-156.85,2.43-3.05a21.32,21.32,0,0,1,5.79-4.77c3.2-1.57,4.45-1.72,18-1.72,15.95,0,18.61.62,22.76,5.16,1.17,1.25,44.57,66.62,96.5,145.35s122.93,186.25,157.81,239l63,95.36C726,665.8,798.83,543.13,800,403.38c0-1.1,0-2.2,0-3.3V400C800,185.38,631,10.26,418.82.44Zm127.26,394.4-.23,140.59-24.79-38-24.87-38V357.23c0-66.07.31-103.21.78-105a15.94,15.94,0,0,1,7.74-9.85c3.21-1.64,4.38-1.8,16.66-1.8,11.57,0,13.61.16,16.19,1.56a15.79,15.79,0,0,1,7.89,9.23C546.08,253.39,546.24,296.87,546.08,394.84Z"/></svg>