<svg id="Layer_1" data-name="Layer 1" xmlns="http://www.w3.org/2000/svg" viewBox="0 0 800 800"><defs><style>.cls-1{fill:#8892bf;}.cls-2,.cls-3{fill:#fff;}.cls-3{fill-rule:evenodd;}</style></defs><circle class="cls-1" cx="400" cy="419.86" r="350"/><path class="cls-2" d="M361,269.86h42L391.11,333h37.74q31,.66,46.26,13.88,15.52,13.21,9.14,50.22l-20.4,110H421.24L440.72,402q3-16.51-1.83-23.45t-21-6.94l-33.78-.33-25,135.79h-42Z"/><path class="cls-3" d="M168.52,333h81.57q35.91.33,52,22.47t10.66,60.46a123.46,123.46,0,0,1-9.44,34.36,102.27,102.27,0,0,1-19.48,30.4q-15.21,17.18-32.56,21.81a139,139,0,0,1-35.92,4.62H178.87l-11.56,62.78H125Zm17.35,136.79L204.07,371h6.15c2.23,0,4.57-.11,7-.33q24.35-.33,40.48,4.95,16.43,5.3,10.95,40Q262,456.87,242.48,463.8q-19.47,6.61-48.7,6.28h-4.26A21.54,21.54,0,0,1,185.87,469.75Z"/><path class="cls-3" d="M610.91,333H529.34l-43.52,236.9h42.31l11.56-62.78h36.53a138.94,138.94,0,0,0,35.91-4.62q17.36-4.63,32.57-21.81a102.44,102.44,0,0,0,19.47-30.4,123.12,123.12,0,0,0,9.44-34.36q5.48-38.33-10.65-60.46T610.91,333Zm-46,38-18.21,98.79a21.56,21.56,0,0,0,3.66.33h4.26q29.22.33,48.7-6.28,19.47-6.94,26.17-48.24,5.47-34.69-11-40Q602.4,370.3,578,370.63q-3.64.33-7,.33Z"/></svg>