<svg id="Layer_1" data-name="Layer 1" xmlns="http://www.w3.org/2000/svg" viewBox="0 0 800 800"><defs><style>.cls-1{fill:#3178c6;}.cls-2{fill:#fff;}</style></defs><path class="cls-1" d="M180.11,63.71H619c51.94,0,94,45.25,94,101.06v471.6c0,55.81-42.1,101.06-94,101.06H180.11c-51.93,0-94-45.25-94-101.06V164.77C86.07,109,128.18,63.71,180.11,63.71Z"/><path class="cls-2" d="M371.38,437.42h78.37V383.47H230.56v53.95h78.37v240.8h62.45ZM474.24,665.06c9.92,5.52,22,9.6,35.51,12.37a216.18,216.18,0,0,0,42.85,4.08A186.49,186.49,0,0,0,594.24,677a101.61,101.61,0,0,0,34.28-14.47c9.92-7,18.37-15.79,23.27-27.64a105.63,105.63,0,0,0,8.69-42.1c0-12-1.71-22.37-5-31.58a62.46,62.46,0,0,0-14.69-23.69,98.72,98.72,0,0,0-22-18.42,266.91,266.91,0,0,0-29.39-15.79c-8.08-3.55-14.69-7-22-10.4a94.4,94.4,0,0,1-15.92-10.26A45.55,45.55,0,0,1,541,471.63a24.35,24.35,0,0,1-3.67-13.16,23.33,23.33,0,0,1,3.3-12.24,29.72,29.72,0,0,1,9.19-9.34,45.72,45.72,0,0,1,14.69-6.05,79.68,79.68,0,0,1,19.59-2.11A105.21,105.21,0,0,1,600,430a123.63,123.63,0,0,1,17.15,3.81,130.5,130.5,0,0,1,17.14,6.45A79.37,79.37,0,0,1,649,449.31V387.47a142.43,142.43,0,0,0-30.61-8.56,229.08,229.08,0,0,0-38-2.76,172.36,172.36,0,0,0-41.63,5,93.59,93.59,0,0,0-34.29,15.79c-9.92,7.11-17.14,15.79-23.26,27.63-5.76,11.06-8.57,23.69-8.57,39.48,0,19.74,5.26,36.84,15.91,50,10.53,14.47,26.94,25,47.76,35.53,8.45,3.68,15.92,7.37,23.26,10.92a102.9,102.9,0,0,1,18.37,11,46.59,46.59,0,0,1,12.25,12.5,27.34,27.34,0,0,1,4.65,15.79A26,26,0,0,1,592,611.69a25.1,25.1,0,0,1-8.69,9.47,47.82,47.82,0,0,1-14.69,6.32,84,84,0,0,1-20.82,2.23,104.12,104.12,0,0,1-39.18-7.5,110.37,110.37,0,0,1-34.41-20.31Z"/></svg>